<svg aria-hidden="true" style="width:0;height:0;position:absolute;overflow:hidden" version="1.1" xmlns="http://www.w3.org/2000/svg" xmlns:xlink="http://www.w3.org/1999/xlink"><defs><symbol id="icon-menu" viewBox="0 0 32 32"><path d="M1.709 0.058c-0.582 0.115-1.206 0.599-1.471 1.142-0.62 1.267 0.119 2.782 1.495 3.067 0.181 0.037 4.829 0.050 14.427 0.041l14.16-0.014 0.306-0.124c0.548-0.221 1.062-0.757 1.248-1.303 0.127-0.373 0.127-1.041 0-1.414-0.187-0.547-0.698-1.077-1.26-1.307l-0.294-0.119-14.186-0.008c-7.973-0.004-14.29 0.013-14.424 0.039zM1.456 13.966c-0.737 0.255-1.267 0.889-1.405 1.68-0.164 0.942 0.345 1.904 1.229 2.322l0.293 0.138h28.854l0.293-0.138c0.887-0.419 1.393-1.379 1.228-2.328-0.121-0.696-0.586-1.305-1.228-1.609l-0.293-0.138-14.346-0.011c-13.697-0.011-14.359-0.008-14.625 0.084zM1.613 27.762c-0.418 0.113-0.669 0.259-0.969 0.564-1.208 1.227-0.565 3.311 1.117 3.62 0.197 0.036 4.99 0.050 14.427 0.041l14.131-0.014 0.294-0.119c0.562-0.23 1.073-0.76 1.26-1.307 0.127-0.373 0.127-1.041 0-1.414-0.186-0.546-0.7-1.081-1.248-1.302l-0.306-0.124-14.213-0.010c-12.125-0.009-14.254 0.001-14.493 0.066z"/></symbol><symbol id="icon-x" viewBox="0 0 32 32"><path stroke-linejoin="round" stroke-linecap="round" stroke-miterlimit="4" stroke-width="2.6667" d="M24 8l-16 16M8 8l16 16"/></symbol><symbol id="icon-instagram" viewBox="0 0 32 32"><path d="M10.4 2.667h11.2c4.253 0 7.733 3.467 7.733 7.733v11.2c0 2.040-0.827 4.013-2.267 5.467-1.453 1.44-3.427 2.267-5.467 2.267h-11.2c-4.267 0-7.733-3.48-7.733-7.733v-11.2c0-2.053 0.813-4.027 2.253-5.48 1.453-1.44 3.427-2.253 5.48-2.253zM10.133 5.333c-1.28 0-2.507 0.493-3.4 1.4-0.907 0.893-1.4 2.12-1.4 3.4v11.72c0 2.653 2.147 4.813 4.8 4.813h11.72c1.28 0 2.507-0.507 3.4-1.413 0.907-0.893 1.413-2.12 1.413-3.4v-11.72c0-2.653-2.16-4.8-4.813-4.8h-11.72zM23 7.333c0.44 0 0.853 0.173 1.173 0.48 0.307 0.32 0.493 0.733 0.493 1.187 0 0.44-0.187 0.853-0.493 1.173-0.32 0.307-0.733 0.493-1.173 0.493-0.453 0-0.867-0.187-1.187-0.493-0.307-0.32-0.48-0.733-0.48-1.173 0-0.453 0.173-0.867 0.48-1.187 0.32-0.307 0.733-0.48 1.187-0.48zM16 9.333c1.76 0 3.453 0.693 4.707 1.947s1.96 2.947 1.96 4.72c0 1.76-0.707 3.453-1.96 4.707s-2.947 1.96-4.707 1.96c-1.773 0-3.467-0.707-4.72-1.96s-1.947-2.947-1.947-4.707c0-1.773 0.693-3.467 1.947-4.72s2.947-1.947 4.72-1.947zM16 12c-1.067 0-2.080 0.413-2.84 1.16-0.747 0.76-1.16 1.773-1.16 2.84 0 1.053 0.413 2.067 1.16 2.827 0.76 0.747 1.773 1.173 2.84 1.173 1.053 0 2.067-0.427 2.827-1.173 0.747-0.76 1.173-1.773 1.173-2.827 0-1.067-0.427-2.080-1.173-2.84-0.76-0.747-1.773-1.16-2.827-1.16z"/></symbol><symbol id="icon-facebook" viewBox="0 0 32 32"><path d="M29.333 16c0-7.373-5.973-13.333-13.333-13.333-7.373 0-13.333 5.96-13.333 13.333 0 6.453 4.573 11.827 10.667 13.067v-9.067h-2.667v-4h2.667v-3.333c0-2.573 2.093-4.667 4.667-4.667h3.333v4h-2.667c-0.733 0-1.333 0.587-1.333 1.333v2.667h4v4h-4v9.267c6.72-0.667 12-6.36 12-13.267z"/></symbol></defs></svg>