<svg aria-hidden="true" style="width:0;height:0;position:absolute;overflow:hidden" xmlns="http://www.w3.org/2000/svg"><defs><symbol id="icon-menu" viewBox="0 0 32 32"><path d="M1.709.058C1.127.173.503.657.238 1.2c-.62 1.267.119 2.782 1.495 3.067.181.037 4.829.05 14.427.041l14.16-.014.306-.124c.548-.221 1.062-.757 1.248-1.303.127-.373.127-1.041 0-1.414-.187-.547-.698-1.077-1.26-1.307L30.32.027 16.134.019C8.161.015 1.844.032 1.71.058zm-.253 13.908a2.14 2.14 0 0 0-1.405 1.68c-.164.942.345 1.904 1.229 2.322l.293.138h28.854l.293-.138c.887-.419 1.393-1.379 1.228-2.328a2.217 2.217 0 0 0-1.228-1.609l-.293-.138-14.346-.011c-13.697-.011-14.359-.008-14.625.084zm.157 13.796a1.902 1.902 0 0 0-.969.564c-1.208 1.227-.565 3.311 1.117 3.62.197.036 4.99.05 14.427.041l14.131-.014.294-.119c.562-.23 1.073-.76 1.26-1.307.127-.373.127-1.041 0-1.414-.186-.546-.7-1.081-1.248-1.302l-.306-.124-14.213-.01c-12.125-.009-14.254.001-14.493.066z"/></symbol><symbol id="icon-x" viewBox="0 0 25 25"><path fill="none" stroke-linejoin="round" stroke-linecap="round" stroke-width="2" d="M24 8 8 24M8 8l16 16"/></symbol></defs></svg>