<svg aria-hidden="true" style="position: absolute; width: 0; height: 0; overflow: hidden;" version="1.1" xmlns="http://www.w3.org/2000/svg" xmlns:xlink="http://www.w3.org/1999/xlink">
<defs>
  <symbol id="icon-menu" viewBox="0 0 32 32">
    <path d="M1.709 0.058c-0.582 0.115-1.206 0.599-1.471 1.142-0.62 1.267 0.119 2.782 1.495 3.067 0.181 0.037 4.829 0.050 14.427 0.041l14.16-0.014 0.306-0.124c0.548-0.221 1.062-0.757 1.248-1.303 0.127-0.373 0.127-1.041 0-1.414-0.187-0.547-0.698-1.077-1.26-1.307l-0.294-0.119-14.186-0.008c-7.973-0.004-14.29 0.013-14.424 0.039zM1.456 13.966c-0.737 0.255-1.267 0.889-1.405 1.68-0.164 0.942 0.345 1.904 1.229 2.322l0.293 0.138h28.854l0.293-0.138c0.887-0.419 1.393-1.379 1.228-2.328-0.121-0.696-0.586-1.305-1.228-1.609l-0.293-0.138-14.346-0.011c-13.697-0.011-14.359-0.008-14.625 0.084zM1.613 27.762c-0.418 0.113-0.669 0.259-0.969 0.564-1.208 1.227-0.565 3.311 1.117 3.62 0.197 0.036 4.99 0.050 14.427 0.041l14.131-0.014 0.294-0.119c0.562-0.23 1.073-0.76 1.26-1.307 0.127-0.373 0.127-1.041 0-1.414-0.186-0.546-0.7-1.081-1.248-1.302l-0.306-0.124-14.213-0.010c-12.125-0.009-14.254 0.001-14.493 0.066z"></path>
  </symbol>
  <symbol id="icon-x" viewBox="0 0 25 25">
    <path fill="none" stroke-linejoin="round" stroke-linecap="round" stroke-miterlimit="4" stroke-width="2" d="M24 8l-16 16"></path>
    <path fill="none" stroke-linejoin="round" stroke-linecap="round" stroke-miterlimit="4" stroke-width="2" d="M8 8l16 16"></path>
  </symbol>
</defs>
</svg>
